<svg width="25" height="25" viewBox="0 0 25 25" fill="none" xmlns="http://www.w3.org/2000/svg">
<g id="person-check 1">
<path id="Vector" d="M19.5312 25C20.9817 25 22.3727 24.4238 23.3982 23.3982C24.4238 22.3727 25 20.9817 25 19.5312C25 18.0808 24.4238 16.6898 23.3982 15.6643C22.3727 14.6387 20.9817 14.0625 19.5312 14.0625C18.0808 14.0625 16.6898 14.6387 15.6643 15.6643C14.6387 16.6898 14.0625 18.0808 14.0625 19.5312C14.0625 20.9817 14.6387 22.3727 15.6643 23.3982C16.6898 24.4238 18.0808 25 19.5312 25ZM22.1547 17.9797L20.0687 21.4578C19.9771 21.6106 19.8518 21.7405 19.7024 21.8376C19.5529 21.9347 19.3834 21.9964 19.2065 22.0181C19.0296 22.0398 18.8501 22.0209 18.6817 21.9628C18.5132 21.9047 18.3603 21.8089 18.2344 21.6828L17.025 20.475C16.8783 20.3283 16.7959 20.1293 16.7959 19.9219C16.7959 19.7144 16.8783 19.5154 17.025 19.3687C17.1717 19.2221 17.3707 19.1396 17.5781 19.1396C17.7856 19.1396 17.9846 19.2221 18.1313 19.3687L18.9859 20.225L20.8141 17.1766C20.8668 17.0885 20.9364 17.0118 21.0188 16.9506C21.1012 16.8895 21.1948 16.8452 21.2943 16.8202C21.3939 16.7952 21.4973 16.7901 21.5989 16.8052C21.7004 16.8202 21.7979 16.8551 21.8859 16.9078C21.974 16.9605 22.0507 17.0301 22.1119 17.1125C22.173 17.1949 22.2173 17.2886 22.2423 17.3881C22.2673 17.4876 22.2724 17.5911 22.2573 17.6926C22.2423 17.7941 22.2074 17.8917 22.1547 17.9797ZM17.1875 7.8125C17.1875 9.0557 16.6936 10.248 15.8146 11.1271C14.9355 12.0061 13.7432 12.5 12.5 12.5C11.2568 12.5 10.0645 12.0061 9.18544 11.1271C8.30636 10.248 7.8125 9.0557 7.8125 7.8125C7.8125 6.5693 8.30636 5.37701 9.18544 4.49794C10.0645 3.61886 11.2568 3.125 12.5 3.125C13.7432 3.125 14.9355 3.61886 15.8146 4.49794C16.6936 5.37701 17.1875 6.5693 17.1875 7.8125ZM12.5 10.9375C13.3288 10.9375 14.1237 10.6083 14.7097 10.0222C15.2958 9.43616 15.625 8.6413 15.625 7.8125C15.625 6.9837 15.2958 6.18884 14.7097 5.60279C14.1237 5.01674 13.3288 4.6875 12.5 4.6875C11.6712 4.6875 10.8763 5.01674 10.2903 5.60279C9.70424 6.18884 9.375 6.9837 9.375 7.8125C9.375 8.6413 9.70424 9.43616 10.2903 10.0222C10.8763 10.6083 11.6712 10.9375 12.5 10.9375Z" fill="black"/>
<path id="Vector_2" d="M13.775 21.8125C13.5957 21.3051 13.4757 20.7787 13.4172 20.2438H5.5625C5.56406 19.8594 5.80313 18.7031 6.8625 17.6437C7.88125 16.625 9.79844 15.5625 13.375 15.5625C13.7812 15.5625 14.1672 15.5766 14.5312 15.6016C14.8844 15.0687 15.3062 14.5859 15.7875 14.1672C15.0578 14.0594 14.2563 14 13.375 14C5.5625 14 4 18.6875 4 20.25C4 21.8125 5.5625 21.8125 5.5625 21.8125H13.775Z" fill="black"/>
</g>
</svg>
